<svg xmlns="http://www.w3.org/2000/svg" viewBox="0 0 24 24"><title>Sin título-2</title><rect fill="#0077b5" x="5.661" y="9.825" width="2.793" height="8.387"/><path fill="#0077b5" d="M17.62,10.591a3.009,3.009,0,0,0-2.328-.961,3.339,3.339,0,0,0-.969.132,2.191,2.191,0,0,0-.736.368,3.163,3.163,0,0,0-.808.887V9.825H9.994l.008.406q.009.407.009,2.505t-.017,5.476h2.785v-4.68a2.028,2.028,0,0,1,.093-.686,1.785,1.785,0,0,1,.537-.723,1.37,1.37,0,0,1,.893-.292,1.2,1.2,0,0,1,1.071.5,2.453,2.453,0,0,1,.343,1.392v4.486H18.5V13.405A4.027,4.027,0,0,0,17.62,10.591Z"/><path fill="#0077b5" d="M7.074,5.788a1.6,1.6,0,0,0-1.138.41A1.362,1.362,0,0,0,5.5,7.235a1.385,1.385,0,0,0,.423,1.032,1.526,1.526,0,0,0,1.117.415h.017A1.592,1.592,0,0,0,8.2,8.267a1.335,1.335,0,0,0,.427-1.032A1.409,1.409,0,0,0,8.2,6.2,1.552,1.552,0,0,0,7.074,5.788Z"/></svg>