<svg xmlns="http://www.w3.org/2000/svg" viewBox="0 0 24 24"><title>Sin título-1</title><path fill="#25d366" d="M11.636,4.509A7.443,7.443,0,0,0,5.37,15.318l-.789,3.834a.289.289,0,0,0,.35.34l3.757-.89A7.44,7.44,0,1,0,11.636,4.509Zm4.483,11.549a5.831,5.831,0,0,1-6.712,1.1L8.884,16.9l-2.3.546.485-2.354-.258-.5A5.832,5.832,0,0,1,7.881,7.82a5.825,5.825,0,0,1,8.238,8.238Z"/><path fill="#25d366" d="M15.61,13.553l-1.441-.414a.537.537,0,0,0-.531.14l-.352.359a.525.525,0,0,1-.571.12,7.673,7.673,0,0,1-2.482-2.188.524.524,0,0,1,.042-.582l.307-.4a.538.538,0,0,0,.067-.546l-.607-1.371A.537.537,0,0,0,9.2,8.481a2.423,2.423,0,0,0-.937,1.43c-.1,1.009.331,2.282,1.968,3.81,1.891,1.766,3.406,2,4.393,1.76a2.419,2.419,0,0,0,1.288-1.123A.537.537,0,0,0,15.61,13.553Z"/></svg>