<?xml version="1.0" encoding="utf-8"?>
<!-- Generator: Adobe Illustrator 23.0.4, SVG Export Plug-In . SVG Version: 6.00 Build 0)  -->
<svg version="1.1" id="Capa_1" xmlns="http://www.w3.org/2000/svg" xmlns:xlink="http://www.w3.org/1999/xlink" x="0px" y="0px"
	 width="24px" height="24px" viewBox="0 0 24 24" style="enable-background:new 0 0 24 24;" xml:space="preserve">
<path d="M16.2,7.4c-0.5,0-0.9,0.3-0.9,0.7c0,0.5,0.3,0.9,0.7,0.9c0,0,0,0,0,0c0.5,0,0.9-0.4,0.9-0.8C17,7.8,16.7,7.5,16.2,7.4z" fill="#FFF"/>
<path d="M19.6,12c0-1.9,0-2.1,0-2.9c0-0.6-0.1-1.2-0.4-1.7c-0.2-0.5-0.5-0.9-0.9-1.2C18,5.8,17.5,5.5,17,5.4C16.4,5.1,15.8,5,15.1,5
	c-0.8,0-1.1,0-3.1,0S9.7,5,8.9,5C8.2,5,7.6,5.1,7,5.4C6.5,5.5,6,5.8,5.7,6.2C5.3,6.5,5,6.9,4.8,7.4C4.6,8,4.4,8.5,4.4,9.1
	c0,0.8,0,1,0,2.9s0,2.1,0,2.9c0,0.6,0.1,1.2,0.4,1.7c0.2,0.5,0.5,0.9,0.9,1.2C6,18.2,6.5,18.5,7,18.6C7.6,18.8,8.2,19,8.9,19
	c0.8,0,1.1,0,3.1,0s2.3,0,3.1,0c0.6,0,1.3-0.1,1.8-0.3c0.5-0.2,1-0.4,1.4-0.8c0.4-0.3,0.7-0.8,0.9-1.2c0.2-0.5,0.3-1.1,0.4-1.7
	C19.6,14.1,19.6,13.9,19.6,12z M18.2,12c0,1.8,0,2.1,0,2.8c0,0.4-0.1,0.9-0.3,1.3c-0.1,0.3-0.3,0.6-0.6,0.8
	c-0.2,0.2-0.5,0.4-0.9,0.5c-0.5,0.2-0.9,0.2-1.4,0.2c-0.8,0-1,0-3.1,0s-2.3,0-3.1,0c-0.5,0-1-0.1-1.4-0.2c-0.3-0.1-0.6-0.3-0.9-0.5
	c-0.2-0.2-0.4-0.5-0.6-0.8c-0.2-0.4-0.3-0.9-0.3-1.3c0-0.7,0-1,0-2.8s0-2.1,0-2.8c0-0.4,0.1-0.9,0.3-1.3c0.1-0.3,0.3-0.6,0.6-0.8
	c0.3-0.2,0.6-0.4,0.9-0.5C8,6.4,8.5,6.3,8.9,6.3c0.8,0,1,0,3.1,0s2.3,0,3.1,0c0.5,0,1,0.1,1.4,0.2c0.3,0.1,0.6,0.3,0.9,0.5
	c0.3,0.2,0.4,0.5,0.6,0.8c0.2,0.4,0.3,0.9,0.3,1.3C18.2,9.9,18.2,10.2,18.2,12z" fill="#FFF"/>
<path d="M12,8.4C9.9,8.3,8.2,9.9,8.1,12c0.1,2.1,1.8,3.7,3.9,3.6c2.1,0.1,3.8-1.5,3.9-3.6C15.8,9.9,14.1,8.3,12,8.4z M12,14.3
	c-1.4,0-2.5-1-2.5-2.3s1.1-2.3,2.5-2.3s2.5,1,2.5,2.3S13.4,14.3,12,14.3z" fill="#FFF"/>
</svg>
