<?xml version="1.0" encoding="utf-8"?>
<!-- Generator: Adobe Illustrator 23.0.4, SVG Export Plug-In . SVG Version: 6.00 Build 0)  -->
<svg version="1.1" id="Capa_1" xmlns="http://www.w3.org/2000/svg" xmlns:xlink="http://www.w3.org/1999/xlink" x="0px" y="0px"
	 width="24px" height="24px" viewBox="0 0 24 24" style="enable-background:new 0 0 24 24;" xml:space="preserve">
<path d="M17.8,9c0,0.1,0,0.3,0,0.4c0,4.7-3.8,8.5-8.5,8.4c-1.6,0-3.2-0.5-4.5-1.3c0.2,0,0.5,0,0.7,0c1.3,0,2.6-0.5,3.7-1.3
	c-1.3,0-2.4-0.9-2.8-2.1c0.2,0,0.4,0.1,0.6,0.1c0.3,0,0.5,0,0.8-0.1c-1.4-0.3-2.4-1.5-2.4-2.9l0,0c0.4,0.2,0.9,0.4,1.3,0.4
	C5.4,9.7,5,7.9,5.8,6.6c1.5,1.9,3.7,3,6.1,3.1c-0.3-1.6,0.8-3.2,2.4-3.5c1-0.2,2,0.1,2.7,0.8c0.7-0.1,1.3-0.4,1.9-0.7
	C18.7,7,18.2,7.6,17.5,8c0.6-0.1,1.2-0.2,1.7-0.5C18.9,8.1,18.3,8.6,17.8,9z"/>
</svg>
