<?xml version="1.0" encoding="utf-8"?>
<!-- Generator: Adobe Illustrator 27.1.1, SVG Export Plug-In . SVG Version: 6.00 Build 0)  -->
<svg version="1.1" id="Layer_1" xmlns="http://www.w3.org/2000/svg" xmlns:xlink="http://www.w3.org/1999/xlink" x="0px" y="0px"
	 viewBox="0 0 870 354" style="enable-background:new 0 0 870 354;" xml:space="preserve">
<style type="text/css">
	.st0{fill:#FFFFFF;}
	.st1{fill:#5B7640;}
	.st2{fill:#E8A745;}
</style>
<g>
	<path class="st0" d="M268.6,112.7c3.6,0,7.1-0.4,10.5-1.2c3.4-0.8,5.9-1.7,7.6-2.5l-2.2-15.8c-1.8,0.7-3.2,1.2-4.4,1.4
		s-2.4,0.3-3.6,0.3c-2.1,0-3.6-0.8-4.5-2.5c-0.9-1.7-1.4-4.3-1.4-7.9V2h-20.2v93c0,6.3,1.6,10.8,4.6,13.6
		C258.2,111.3,262.7,112.7,268.6,112.7z"/>
	<path class="st0" d="M296.6,105.4c2.1,2,4.5,3.6,7.4,4.7c2.9,1.1,6.1,1.6,9.8,1.6c5.8,0,10.5-1.2,14.2-3.5c3.7-2.3,6.5-5.1,8.6-8.3
		h0.8l3.3,10.7h16.4c-1.2-3.7-2-7.7-2.3-11.9c-0.3-4.2-0.4-8.5-0.4-12.9c0-4.4,0.2-9,0.5-13.6s0.5-9.2,0.5-13.7
		c0-4.1-0.4-7.8-1.3-11.2s-2.4-6.2-4.5-8.5s-5-4.2-8.6-5.5c-3.6-1.3-8.1-1.9-13.5-1.9c-6.2,0-12.1,0.5-17.8,1.6
		c-5.7,1.1-10.6,2.6-14.7,4.4l4.8,15c2.9-1.3,6.6-2.4,11.1-3.3c4.5-0.8,8.8-1.2,12.8-1.2c5.4,0,8.8,1.3,10.4,3.8
		c1.5,2.5,2,6.7,1.2,12.5c-6.8-0.3-13-0.1-18.5,0.7s-10.3,2.2-14.3,4.2c-4,2-7,4.7-9.1,7.9s-3.2,7.3-3.2,12c0,3.4,0.6,6.5,1.7,9.2
		C293,101.1,294.6,103.4,296.6,105.4z M312.9,80.9c1.3-1.3,3.1-2.4,5.4-3.1c2.3-0.7,4.9-1.2,7.8-1.4c3-0.2,6-0.2,9.2,0.2v10.1
		c-1.1,2.1-2.9,4-5.3,5.8c-2.4,1.8-5.6,2.7-9.6,2.7c-3,0-5.4-0.8-7-2.4c-1.7-1.6-2.6-3.8-2.6-6.7C310.9,83.9,311.6,82.2,312.9,80.9z
		"/>
	<path class="st0" d="M401.7,94.8c-1.8,1.1-4.2,1.7-7.2,1.7c-4.1,0-8.2-0.6-12.1-1.9c-3.9-1.3-7.1-2.6-9.5-4l-5.6,15
		c3,1.9,6.9,3.5,11.7,4.9s10,2.1,15.4,2.1c10,0,17.5-2.2,22.6-6.7c5-4.5,7.5-10.7,7.5-18.5c0-4.6-0.9-8.3-2.6-11.2s-3.9-5.2-6.5-7.1
		c-2.6-1.8-5.4-3.3-8.5-4.4c-3.1-1.1-5.9-2.2-8.5-3.2c-2.6-1-4.8-2-6.5-3.2c-1.8-1.1-2.6-2.6-2.6-4.5c0-4.7,3-7,9-7
		c3.7,0,7.4,0.5,11,1.5c3.6,1,6.6,2,9,3l4.5-14.6c-2.7-1.5-6.4-3-11.2-4.2c-4.8-1.2-10.1-1.9-16-1.9c-8.6,0-15.1,2-19.7,6
		s-6.8,9.9-6.8,17.5c0,4.7,0.9,8.5,2.6,11.4c1.8,2.9,3.9,5.4,6.5,7.3c2.6,1.9,5.4,3.4,8.5,4.5c3.1,1.1,5.9,2.1,8.5,3.2
		c2.6,1,4.8,2.2,6.5,3.4c1.8,1.2,2.6,2.9,2.6,5C404.4,91.8,403.5,93.7,401.7,94.8z"/>
	<polygon class="st0" points="293.9,313.6 291.7,325.8 290.9,325.8 288.3,313.9 273.9,273.2 250.4,273.2 284.1,351.5 296.3,351.5 
		328.7,273.2 307,273.2 	"/>
	<path class="st0" d="M389.2,277.8c-2.9-2.4-6.2-4.1-9.9-5.1c-3.7-1-7.5-1.5-11.5-1.5c-11.8,0-20.9,3.4-27.4,10.2s-9.8,17-9.8,30.7
		c0,12.7,2.9,22.7,8.7,30c5.8,7.3,14.9,10.9,27.4,10.9c6,0,11.6-0.9,17-2.5c5.3-1.7,9.5-3.8,12.6-6.3l-6.7-13.2
		c-1.8,1.3-4.3,2.7-7.7,4c-3.4,1.3-7.2,1.9-11.4,1.9c-6.8,0-11.8-1.6-14.8-5s-4.7-8.2-5-14.7h46.5c0.5-2.7,0.9-5.3,1.2-7.8
		s0.4-4.8,0.4-7c0-6-0.9-11-2.6-15C394.4,283.3,392.1,280.1,389.2,277.8z M380.1,304.6h-28.8c0.5-5.3,2-9.5,4.6-12.6
		c2.5-3.1,6.4-4.7,11.7-4.7c4.5,0,7.9,1.5,10,4.5C379.6,294.7,380.5,299,380.1,304.6z"/>
	<path class="st0" d="M438.8,274.6c-3,2.1-5.4,5-7.1,8.8h-0.6l-2.3-10.2h-15.7v77.5h20.2v-50.1c0.8-3,2.5-5.5,4.9-7.4
		c2.4-1.9,5.5-2.9,9.1-2.9c2.6,0,5.5,0.6,8.7,1.7l2.6-18.9c-3.4-1.1-6.5-1.7-9.1-1.7C445.3,271.5,441.8,272.6,438.8,274.6z"/>
	<path class="st0" d="M533.4,323.5v-81.2h-20.2v31.5c-2.1-0.8-4.1-1.4-6.2-1.8c-2.1-0.4-4.7-0.5-7.9-0.5c-11.6,0-20.4,3.7-26.4,11
		c-6,7.3-9,17.6-9,30.9c0,13.6,2.7,23.7,8.1,30.1c5.4,6.4,12.9,9.6,22.6,9.6c5.3,0,9.9-1.1,13.7-3.3c3.9-2.2,6.8-5.1,8.9-8.8h0.6
		l2.8,10.1h14.4c-0.8-5.3-1.3-10.1-1.4-14.4S533.4,327.8,533.4,323.5z M513.2,324.7c-0.9,3.6-2.5,6.4-4.8,8.3
		c-2.3,1.9-5.4,2.9-9.3,2.9c-5.1,0-8.8-2-11.1-6c-2.3-4-3.5-9.4-3.5-16c0-9.3,1.4-15.9,4.3-19.7s7.1-5.7,12.8-5.7
		c2.8,0,5.1,0.3,6.8,0.9c1.8,0.6,3.4,1.4,4.8,2.5L513.2,324.7L513.2,324.7z"/>
	<path class="st0" d="M606,277.8c-2.9-2.4-6.2-4.1-9.9-5.1s-7.5-1.5-11.5-1.5c-11.8,0-20.9,3.4-27.4,10.2s-9.8,17-9.8,30.7
		c0,12.7,2.9,22.7,8.7,30c5.8,7.3,14.9,10.9,27.4,10.9c6,0,11.7-0.9,17-2.5c5.3-1.7,9.5-3.8,12.6-6.3l-6.7-13.2
		c-1.8,1.3-4.3,2.7-7.7,4c-3.4,1.3-7.2,1.9-11.4,1.9c-6.8,0-11.8-1.6-14.8-5s-4.7-8.2-5-14.7H614c0.5-2.7,0.9-5.3,1.2-7.8
		c0.3-2.5,0.4-4.8,0.4-7c0-6-0.9-11-2.6-15C611.2,283.3,608.8,280.1,606,277.8z M596.8,304.6H568c0.5-5.3,2-9.5,4.6-12.6
		c2.5-3.1,6.4-4.7,11.7-4.7c4.5,0,7.9,1.5,10,4.5C596.4,294.7,597.2,299,596.8,304.6z"/>
	<path class="st0" d="M672.9,309.5c-2.6-1.8-5.4-3.3-8.5-4.4c-3.1-1.1-5.9-2.2-8.5-3.2c-2.6-1-4.8-2-6.5-3.2
		c-1.8-1.1-2.6-2.6-2.6-4.5c0-4.7,3-7,9-7c3.7,0,7.4,0.5,11,1.5c3.6,1,6.6,2,9,3l4.5-14.6c-2.7-1.5-6.4-3-11.2-4.2
		c-4.8-1.2-10.1-1.9-16-1.9c-8.6,0-15.1,2-19.7,6s-6.8,9.9-6.8,17.5c0,4.7,0.9,8.5,2.6,11.4c1.8,3,3.9,5.4,6.5,7.3
		c2.6,1.9,5.4,3.4,8.5,4.5c3.1,1.1,5.9,2.1,8.5,3.2c2.6,1,4.8,2.2,6.5,3.4s2.6,2.9,2.6,5c0,2.7-0.9,4.6-2.7,5.7
		c-1.8,1.1-4.2,1.7-7.2,1.7c-4.1,0-8.2-0.6-12.1-1.9c-3.9-1.3-7.1-2.6-9.5-4l-5.6,15c3,1.9,6.9,3.5,11.7,4.9s10,2.1,15.4,2.1
		c10,0,17.5-2.2,22.6-6.7c5-4.5,7.5-10.7,7.5-18.5c0-4.5-0.9-8.3-2.6-11.2C677.7,313.6,675.5,311.3,672.9,309.5z"/>
	<path class="st0" d="M286.6,225.2c6,0,11.6-0.9,17-2.6c5.3-1.7,9.5-3.8,12.6-6.3l-6.7-13.2c-1.8,1.3-4.3,2.7-7.7,4
		c-3.4,1.3-7.2,1.9-11.4,1.9c-6.8,0-11.8-1.6-14.8-5c-3-3.3-4.7-8.2-5-14.7h46.5c0.5-2.7,0.9-5.3,1.2-7.8s0.4-4.8,0.4-7
		c0-6-0.9-11-2.6-15c-1.8-4-4.1-7.2-7-9.6c-2.9-2.4-6.2-4.1-9.9-5.1c-3.7-1-7.5-1.6-11.5-1.6c-11.8,0-20.9,3.4-27.4,10.2
		s-9.8,17.1-9.8,30.7c0,12.7,2.9,22.7,8.7,30C264.9,221.5,274.1,225.2,286.6,225.2z M275.6,164.2c2.5-3.1,6.4-4.7,11.7-4.7
		c4.5,0,7.9,1.5,10,4.5s3,7.3,2.6,12.9h-28.8C271.6,171.5,273.1,167.3,275.6,164.2z"/>
	<path class="st0" d="M419,165.7c1.3,3.1,1.9,7.6,1.9,13.7V223h20.2v-46.5c0-6.5-0.5-11.9-1.4-16.1c-0.9-4.2-2.4-7.6-4.3-10.1
		c-1.9-2.5-4.4-4.3-7.4-5.4s-6.7-1.6-11.1-1.6c-5.3,0-9.8,1.2-13.5,3.6c-3.7,2.4-6.8,5.6-9.1,9.6c-1.8-4.8-4.2-8.1-7.4-10.2
		c-3.1-2-7.2-3-12.2-3c-5.8,0-10.5,1.2-14.2,3.7c-3.7,2.5-6.7,5.4-9.1,8.7h-0.6l-2.3-10.2h-15.7V223h20.2v-51.6c1.1-3,2.8-5.4,5-7.4
		c2.2-1.9,5-2.9,8.5-2.9c4.2,0,7,1.5,8.4,4.5s2,8.1,2,15.2V223h20.2v-50.9c1-3.4,2.6-6.1,4.7-8.1c2.1-2,5-2.9,8.6-2.9
		C414.9,161.1,417.8,162.7,419,165.7z"/>
	<path class="st0" d="M477.9,222.2c2.1,1,4.1,1.8,6.2,2.2c2.1,0.5,4.7,0.7,7.9,0.7c5.7,0,10.7-1,15.1-2.9s8.1-4.8,11.2-8.5
		c3-3.7,5.3-8.2,6.9-13.6c1.5-5.3,2.3-11.3,2.3-17.9c0-13.6-2.4-23.5-7.3-29.7c-4.9-6.1-12.1-9.2-21.9-9.2c-5.3,0-9.8,0.9-13.4,2.8
		c-3.7,1.9-6.9,4.8-9.5,8.7h-0.6l-2.3-9.3h-14.7V254h20.2L477.9,222.2L477.9,222.2z M477.9,172.1c1.2-3.9,3-6.9,5.2-8.8
		c2.2-2,5.3-2.9,9.2-2.9c5.1,0,8.7,1.9,11,5.6s3.4,9,3.4,15.8c0,9.4-1.5,16.1-4.3,20.2c-2.9,4.1-7.2,6.1-13,6.1c-2.8,0-5-0.3-6.7-1
		c-1.7-0.7-3.3-1.6-4.7-2.7L477.9,172.1L477.9,172.1z"/>
	<path class="st0" d="M561.6,172.9c0.8-3,2.5-5.4,4.9-7.4s5.5-2.9,9.1-2.9c2.6,0,5.5,0.6,8.7,1.7l2.6-18.9c-3.4-1.1-6.5-1.7-9.2-1.7
		c-4,0-7.5,1-10.5,3.1s-5.4,5-7.1,8.8h-0.6l-2.3-10.2h-15.7V223h20.2L561.6,172.9L561.6,172.9z"/>
	<path class="st0" d="M628.3,225.2c6,0,11.7-0.9,17-2.6c5.3-1.7,9.5-3.8,12.6-6.3l-6.7-13.2c-1.8,1.3-4.3,2.7-7.7,4
		c-3.4,1.3-7.2,1.9-11.4,1.9c-6.8,0-11.8-1.6-14.8-5c-3-3.3-4.7-8.2-5-14.7h46.5c0.5-2.7,0.9-5.3,1.2-7.8c0.3-2.5,0.4-4.8,0.4-7
		c0-6-0.9-11-2.6-15c-1.8-4-4.1-7.2-7-9.6c-2.9-2.4-6.2-4.1-9.9-5.1s-7.5-1.6-11.5-1.6c-11.8,0-20.9,3.4-27.4,10.2
		c-6.5,6.8-9.8,17.1-9.8,30.7c0,12.7,2.9,22.7,8.7,30C606.6,221.5,615.8,225.2,628.3,225.2z M617.3,164.2c2.5-3.1,6.4-4.7,11.7-4.7
		c4.5,0,7.9,1.5,10,4.5s3,7.3,2.6,12.9h-28.8C613.3,171.5,614.8,167.3,617.3,164.2z"/>
	<path class="st0" d="M717.7,181.7c-2.6-1.8-5.4-3.3-8.5-4.4c-3.1-1.1-5.9-2.2-8.5-3.2c-2.6-1-4.8-2-6.5-3.2
		c-1.8-1.1-2.6-2.6-2.6-4.5c0-4.7,3-7,9-7c3.7,0,7.4,0.5,11,1.6c3.6,1,6.6,2,9,2.9l4.5-14.6c-2.7-1.6-6.4-2.9-11.2-4.2
		c-4.8-1.2-10.1-1.9-16-1.9c-8.6,0-15.1,2-19.7,6s-6.8,9.9-6.8,17.5c0,4.7,0.9,8.4,2.6,11.4c1.8,2.9,3.9,5.4,6.5,7.3
		c2.6,1.9,5.4,3.4,8.5,4.5c3.1,1.1,5.9,2.1,8.5,3.2c2.6,1,4.8,2.2,6.5,3.4s2.6,2.9,2.6,5c0,2.7-0.9,4.6-2.7,5.7
		c-1.8,1.1-4.2,1.7-7.2,1.7c-4.1,0-8.2-0.6-12.1-1.9c-3.9-1.3-7.1-2.6-9.5-4l-5.6,15c3,1.9,6.9,3.5,11.7,4.9s10,2.1,15.4,2.1
		c10,0,17.5-2.2,22.6-6.7c5-4.5,7.5-10.7,7.5-18.5c0-4.6-0.9-8.3-2.6-11.2S720.3,183.5,717.7,181.7z"/>
	<path class="st0" d="M799,198.3c0-4.4,0.2-9,0.5-13.6c0.3-4.6,0.5-9.2,0.5-13.7c0-4.1-0.4-7.9-1.3-11.2s-2.4-6.1-4.5-8.5
		s-5-4.2-8.6-5.5c-3.6-1.3-8.1-1.9-13.5-1.9c-6.2,0-12.1,0.5-17.8,1.6c-5.7,1.1-10.6,2.6-14.7,4.4l4.8,15c2.9-1.3,6.6-2.4,11.1-3.3
		c4.5-0.8,8.8-1.2,12.8-1.2c5.4,0,8.8,1.3,10.4,3.8c1.5,2.5,2,6.7,1.2,12.5c-6.8-0.3-13-0.1-18.5,0.7s-10.3,2.2-14.3,4.2
		c-4,2-7,4.7-9.2,7.9c-2.1,3.3-3.2,7.3-3.2,12c0,3.4,0.6,6.5,1.7,9.2c1.1,2.7,2.7,5.1,4.8,7.1c2.1,2,4.5,3.6,7.4,4.7
		c2.9,1.1,6.2,1.6,9.8,1.6c5.8,0,10.5-1.2,14.2-3.5c3.7-2.3,6.5-5.1,8.6-8.3h0.8l3.3,10.7h16.4c-1.2-3.7-2-7.7-2.3-11.9
		C799.1,207.1,799,202.8,799,198.3z M780,199.1c-1.1,2.1-2.9,4-5.3,5.8c-2.4,1.8-5.6,2.7-9.6,2.7c-3,0-5.3-0.8-7-2.4
		s-2.6-3.9-2.6-6.7c0-2.1,0.7-3.8,2-5.1s3.2-2.4,5.4-3.1c2.3-0.7,4.9-1.2,7.8-1.4s6-0.1,9.2,0.2L780,199.1L780,199.1z"/>
	<path class="st0" d="M866.6,188.7c-1.8-2.9-3.9-5.2-6.5-7.1c-2.6-1.8-5.4-3.3-8.5-4.4c-3.1-1.1-5.9-2.2-8.5-3.2
		c-2.6-1-4.8-2-6.5-3.2c-1.8-1.1-2.6-2.6-2.6-4.5c0-4.7,3-7,9-7c3.7,0,7.4,0.5,11,1.6c3.6,1,6.6,2,9,2.9l4.5-14.6
		c-2.7-1.6-6.4-2.9-11.2-4.2c-4.8-1.2-10.1-1.9-16-1.9c-8.6,0-15.1,2-19.7,6s-6.8,9.9-6.8,17.5c0,4.7,0.9,8.4,2.6,11.4
		c1.8,2.9,3.9,5.4,6.5,7.3c2.6,1.9,5.4,3.4,8.5,4.5c3.1,1.1,5.9,2.1,8.5,3.2c2.6,1,4.8,2.2,6.5,3.4s2.6,2.9,2.6,5
		c0,2.7-0.9,4.6-2.7,5.7c-1.8,1.1-4.2,1.7-7.2,1.7c-4.1,0-8.2-0.6-12.1-1.9c-3.9-1.3-7.1-2.6-9.5-4l-5.6,15c3,1.9,6.9,3.5,11.7,4.9
		s10,2.1,15.4,2.1c10,0,17.5-2.2,22.6-6.7c5-4.5,7.5-10.7,7.5-18.5C869.2,195.4,868.3,191.6,866.6,188.7z"/>
	<path class="st1" d="M174.1,190.6c0-2.2-1.8-4.1-4.1-4.1s-4.1,1.8-4.1,4.1v11.3L153,188c0-0.2,0.1-0.4,0.1-0.6v-24.3
		c0-2.2-1.8-4.1-4.1-4.1s-4.1,1.8-4.1,4.1v16.3l-25.4-27.2c-1.5-1.6-4.1-1.7-5.7-0.2c-1.6,1.5-1.7,4.1-0.2,5.7l24,25.6h-16.1
		c-2.2,0-4.1,1.8-4.1,4.1s1.8,4.1,4.1,4.1h23.7l18.2,19.5h-20.8c-2.2,0-4.1,1.8-4.1,4.1s1.8,4.1,4.1,4.1H170c0.3,0,0.5,0,0.8-0.1
		l5.8,6.2l0.1-0.1c0.9,0.7,1.6,1.6,2.4,2.4V216l-5.1-5.4L174.1,190.6L174.1,190.6z"/>
	<path class="st2" d="M102.9,233.6c-2.6-2.5-5.3-5.2-7.9-8.1c-4-4.5-7.3-9.6-9.7-15.1c-6.2-14.4-15.4-44.3-3.3-78.9
		c33.6-10.3,61.9-3,78.3,3.9c6.1,2.5,11.5,6.2,16.3,10.6V0.5c-8.7,0-17.4,0-26.1,0c-2.6,0-2.6,0-2.7,2.7c-0.7,11.6-1.4,23.3-2,34.9
		c-0.1,1.3-0.5,2-1.9,2.3c-14.2,3.4-27.5,8.9-39.9,16.6c-1.2,0.7-1.8,0.5-2.8-0.3c-9.3-8.3-18.6-16.6-28-24.9
		C59.3,45.6,45.6,59.2,31.9,73c8.6,9.7,17.3,19.5,26,29.3c-0.4,0.7-0.7,1.3-1,1.8C49.5,116.3,44,129.2,40.7,143
		c-0.5,2.1-1.4,2.6-3.3,2.7c-11.6,0.6-23.1,1.3-34.7,2c-0.6,0-1.2,0.1-1.8,0.2c0,19.5,0,38.8,0,58.2c1.5,0.1,2.7,0.2,4,0.3
		c11,0.7,22.1,1.3,33.2,1.9c1.5,0.1,2.2,0.5,2.6,2.1c3.4,14.2,9,27.5,16.6,39.9c0.6,0.9,0.6,1.5-0.2,2.3
		c-5.2,5.7-10.3,11.5-15.4,17.3c-3.3,3.7-6.5,7.4-9.7,11c13.8,13.8,27.5,27.5,41.3,41.2c0.3-0.2,0.7-0.6,1.1-0.9c9-8,18-16,27-24
		c1-0.9,1.6-1,2.8-0.3c12.4,7.6,25.6,13.1,39.7,16.5c1.4,0.4,2,0.9,2.1,2.4c0.5,10,1.1,19.9,1.7,29.9c0.1,2.5,0.3,5,0.5,7.5
		c0.5,0.1,0.8,0.1,1.1,0.1c9.2,0,18.4,0,27.5,0V242.9c-1.3-1.4-2.7-2.7-4.2-3.9C152.5,252.4,124.6,254,102.9,233.6z"/>
</g>
</svg>
